# xmcd
#
# Track frame offsets: 
#        150
#        4382
#        18869
#        27295
#        42249
#        60232
#        75312
#        89254
#        103050
#        121127
#        138405
#        149737
#        162682
#        178278
#        199446
#        217768
#
# Disc length: 3872 seconds
#
# Revision: 0
# Processed by: cddbd v1.5.2PL0 Copyright (c) Steve Scherf et al.
# Submitted via: ExactAudioCopyFreeDBPlugin 1.0
#
DISCID=dc0f1e10
DTITLE=P Brothers - Live Hardcore Worldwide Pt.2
DYEAR=2004
DGENRE=Hip-Hop
TTITLE0=Live Intro (feat. Cappo)
TTITLE1=The Illest (feat. Cappo)
TTITLE2=45 and Cappo Live From The Boat Club
TTITLE3=3 Kings (feat. Cappo, Mr. 45 and Scor-Zay-Zee)
TTITLE4=Nottingham BX (feat. Cappo)
TTITLE5=Come On Down (feat. Eddie Cheeba, Sadat X and G.S.)
TTITLE6=Showstopper (feat. Mr. 45)
TTITLE7=Scor-Zay-Zee and Lee Ramsey Live From The Boat Club
TTITLE8=Make It Better (feat. Cappo)
TTITLE9=Incomparable (feat. Cappo)
TTITLE10=Rock The House (feat. Donald D and Lee Ramsey)
TTITLE11=Showstopper Pt 2 (45 Rocks The House) (feat. Mr. 45)
TTITLE12=4 Kings Live At The Boat Club
TTITLE13=Great Britain (feat. Scor-Zay-Zee)
TTITLE14=Kill (Make My Songs) (feat. Cappo)
TTITLE15=Outro (feat. Cappo)
EXTD=
EXTT0=
EXTT1=
EXTT2=
EXTT3=
EXTT4=
EXTT5=
EXTT6=
EXTT7=
EXTT8=
EXTT9=
EXTT10=
EXTT11=
EXTT12=
EXTT13=
EXTT14=
EXTT15=
PLAYORDER=
